<?xml version="1.0" standalone="no"?>
<!DOCTYPE svg PUBLIC "-//W3C//DTD SVG 20010904//EN"
 "http://www.w3.org/TR/2001/REC-SVG-20010904/DTD/svg10.dtd">
<svg version="1.0" xmlns="http://www.w3.org/2000/svg"
 width="128.000000pt" height="128.000000pt" viewBox="0 0 128.000000 128.000000"
 preserveAspectRatio="xMidYMid meet">
<metadata>
Created by potrace 1.16, written by Peter Selinger 2001-2019
</metadata>
<g transform="translate(0.000000,128.000000) scale(0.100000,-0.100000)"
fill="#000000" stroke="none">
<path d="M965 1268 c-11 -6 -43 -33 -70 -59 l-51 -49 -321 -3 c-444 -3 -413
28 -413 -410 0 -426 -14 -407 306 -407 l211 0 6 -133 c7 -147 20 -207 44 -207
11 0 13 5 7 18 -4 9 -9 82 -11 162 -1 84 1 137 6 125 7 -18 10 -16 29 21 22
43 78 98 109 108 30 10 155 180 147 201 -3 7 3 16 13 19 23 7 123 188 157 283
51 144 47 239 -11 304 -32 36 -39 39 -87 39 -28 0 -60 -6 -71 -12z m-241 -315
c-37 -76 -114 -308 -118 -353 0 -8 -5 -18 -10 -21 -5 -4 -9 -32 -10 -63 l0
-56 -176 2 -175 3 -3 274 c-2 193 1 278 9 287 9 11 63 14 268 14 l257 0 -42
-87z"/>
</g>
</svg>
